<?xml version="1.0" encoding="utf-8"?>
<svg id="master-artboard" viewBox="0 0 800 130" version="1.1" xmlns="http://www.w3.org/2000/svg" x="0px" y="0px" style="enable-background:new 0 0 1400 980;" width="800px" height="130px"><rect id="ee-background" x="0" y="0" width="800" height="130" style="fill: white; fill-opacity: 0; pointer-events: none;"/><defs><style id="style-1">@import url(https://fonts.googleapis.com/css?family=Montserrat:400);</style></defs>























































































































<path d="M 408.52001953125 390 L 408.52001953125 301.2300109863281 L 428.33001708984375 301.2300109863281 L 428.33001708984375 372.3500061035156 L 466.17999267578125 372.3500061035156 L 466.17999267578125 390 L 408.52001953125 390 ZM 497.7969055175781 390 L 478.74688720703125 390 L 478.74688720703125 321.66998291015625 L 497.7969055175781 321.66998291015625 L 497.7969055175781 390 M 480.326904296875 312.9700012207031 C 480.326904296875 312.9700012207031 479.79022216796875 312.433349609375 478.7168884277344 311.3599853515625 C 477.63690185546875 310.2799987792969 477.0968933105469 308.17333984375 477.0968933105469 305.0400085449219 C 477.0968933105469 301.90667724609375 478.1735534667969 299.260009765625 480.326904296875 297.1000061035156 C 482.4869079589844 294.94000244140625 485.1335754394531 293.8599853515625 488.26690673828125 293.8599853515625 C 491.4002380371094 293.8599853515625 494.0469055175781 294.94000244140625 496.2069091796875 297.1000061035156 C 498.36688232421875 299.260009765625 499.4468994140625 301.90667724609375 499.4468994140625 305.0400085449219 C 499.4468994140625 308.17333984375 498.36688232421875 310.816650390625 496.2069091796875 312.9700012207031 C 494.0469055175781 315.1300048828125 491.4002380371094 316.2099914550781 488.26690673828125 316.2099914550781 C 485.1335754394531 316.2099914550781 482.4869079589844 315.1300048828125 480.326904296875 312.9700012207031 ZM 538.5562133789062 335.3900146484375 L 538.5562133789062 366 C 538.5562133789062 368.6199951171875 539.23291015625 370.67333984375 540.586181640625 372.1600036621094 C 541.9395751953125 373.6400146484375 543.549560546875 374.3800048828125 545.4161987304688 374.3800048828125 C 548.9695434570312 374.3800048828125 551.9761962890625 372.7699890136719 554.4362182617188 369.54998779296875 L 561.5462036132812 382.8900146484375 C 555.6195678710938 388.30999755859375 549.3728637695312 391.0199890136719 542.8062133789062 391.0199890136719 C 536.2462158203125 391.0199890136719 530.702880859375 388.8599853515625 526.1762084960938 384.5400085449219 C 521.6428833007812 380.2200012207031 519.376220703125 374.336669921875 519.376220703125 366.8900146484375 L 519.376220703125 335.3900146484375 L 511.376220703125 335.3900146484375 L 511.376220703125 321.66998291015625 L 519.376220703125 321.66998291015625 L 519.376220703125 301.2300109863281 L 538.5562133789062 301.2300109863281 L 538.5562133789062 321.66998291015625 L 555.0662231445312 321.66998291015625 L 555.0662231445312 335.3900146484375 L 538.5562133789062 335.3900146484375 ZM 594.4291381835938 335.3900146484375 L 594.4291381835938 366 C 594.4291381835938 368.6199951171875 595.1058349609375 370.67333984375 596.4591064453125 372.1600036621094 C 597.8125 373.6400146484375 599.4224853515625 374.3800048828125 601.2891235351562 374.3800048828125 C 604.8424682617188 374.3800048828125 607.84912109375 372.7699890136719 610.3091430664062 369.54998779296875 L 617.4191284179688 382.8900146484375 C 611.4924926757812 388.30999755859375 605.2457885742188 391.0199890136719 598.6791381835938 391.0199890136719 C 592.119140625 391.0199890136719 586.5758056640625 388.8599853515625 582.0491333007812 384.5400085449219 C 577.5158081054688 380.2200012207031 575.2491455078125 374.336669921875 575.2491455078125 366.8900146484375 L 575.2491455078125 335.3900146484375 L 567.2491455078125 335.3900146484375 L 567.2491455078125 321.66998291015625 L 575.2491455078125 321.66998291015625 L 575.2491455078125 301.2300109863281 L 594.4291381835938 301.2300109863281 L 594.4291381835938 321.66998291015625 L 610.9391479492188 321.66998291015625 L 610.9391479492188 335.3900146484375 L 594.4291381835938 335.3900146484375 ZM 646.6221313476562 390 L 627.5721435546875 390 L 627.5721435546875 295.7699890136719 L 646.6221313476562 295.7699890136719 L 646.6221313476562 390 ZM 723.8314208984375 380.0899963378906 C 716.124755859375 387.3766784667969 707.084716796875 391.0199890136719 696.71142578125 391.0199890136719 C 686.3447265625 391.0199890136719 677.7747192382812 387.8233337402344 671.0014038085938 381.42999267578125 C 664.2280883789062 375.03668212890625 660.8414306640625 366.46331787109375 660.8414306640625 355.7099914550781 C 660.8414306640625 344.9566650390625 664.2913818359375 336.40667724609375 671.19140625 330.05999755859375 C 678.0914306640625 323.7066650390625 686.2413940429688 320.5299987792969 695.6414184570312 320.5299987792969 C 705.0347290039062 320.5299987792969 713.0114135742188 323.3666687011719 719.5714111328125 329.0400085449219 C 726.1380615234375 334.71331787109375 729.42138671875 342.5033264160156 729.42138671875 352.4100036621094 L 729.42138671875 362.57000732421875 L 679.6314086914062 362.57000732421875 C 680.2247314453125 366.2966613769531 682.17138671875 369.34332275390625 685.471435546875 371.7099914550781 C 688.778076171875 374.0833435058594 692.5047607421875 375.2699890136719 696.6514282226562 375.2699890136719 C 703.3380737304688 375.2699890136719 708.8414306640625 373.02667236328125 713.161376953125 368.5400085449219 L 723.8314208984375 380.0899963378906 M 710.1113891601562 348.9800109863281 C 709.69140625 344.913330078125 708.1680908203125 341.7799987792969 705.5413818359375 339.58001708984375 C 702.9147338867188 337.3800048828125 699.7180786132812 336.2799987792969 695.951416015625 336.2799987792969 C 692.1847534179688 336.2799987792969 688.7347412109375 337.42333984375 685.6013793945312 339.7099914550781 C 682.4680786132812 341.9966735839844 680.6480712890625 345.086669921875 680.1414184570312 348.9800109863281 L 710.1113891601562 348.9800109863281 ZM 809.0375366210938 301.2300109863281 L 809.0375366210938 318.8800048828125 L 764.8375244140625 318.8800048828125 L 764.8375244140625 337.16998291015625 L 804.5875244140625 337.16998291015625 L 804.5875244140625 354.05999755859375 L 764.8375244140625 354.05999755859375 L 764.8375244140625 372.4700012207031 L 810.4375610351562 372.4700012207031 L 810.4375610351562 390 L 745.0275268554688 390 L 745.0275268554688 301.2300109863281 L 809.0375366210938 301.2300109863281 ZM 844.5901489257812 351.8999938964844 L 844.5901489257812 390 L 825.5401611328125 390 L 825.5401611328125 321.66998291015625 L 844.5901489257812 321.66998291015625 L 844.5901489257812 329.2900085449219 C 850.343505859375 323.45001220703125 856.8201293945312 320.5299987792969 864.0201416015625 320.5299987792969 C 871.2135009765625 320.5299987792969 877.246826171875 323.07000732421875 882.1201171875 328.1499938964844 C 886.98681640625 333.2300109863281 889.420166015625 340.0033264160156 889.420166015625 348.4700012207031 L 889.420166015625 390 L 870.3701171875 390 L 870.3701171875 351.3900146484375 C 870.3701171875 340.8900146484375 866.5167846679688 335.6400146484375 858.8101196289062 335.6400146484375 C 855.0034790039062 335.6400146484375 851.6801147460938 337.01666259765625 848.8401489257812 339.7699890136719 C 846.0068359375 342.5233459472656 844.5901489257812 346.566650390625 844.5901489257812 351.8999938964844 ZM 934.0528564453125 391.0199890136719 C 934.0528564453125 391.0199890136719 932.0294799804688 391.0199890136719 927.9828491210938 391.0199890136719 C 923.94287109375 391.0199890136719 918.7461547851562 387.5899963378906 912.392822265625 380.7300109863281 C 906.0462036132812 373.8699951171875 902.8728637695312 365.3599853515625 902.8728637695312 355.20001220703125 C 902.8728637695312 345.0400085449219 905.9628295898438 336.72332763671875 912.142822265625 330.25 C 918.3228149414062 323.7699890136719 925.5628662109375 320.5299987792969 933.8628540039062 320.5299987792969 C 942.1561889648438 320.5299987792969 948.9295043945312 323.45001220703125 954.182861328125 329.2900085449219 L 954.182861328125 295.7699890136719 L 973.2228393554688 295.7699890136719 L 973.2228393554688 390 L 954.182861328125 390 L 954.182861328125 380.9800109863281 C 948.8428344726562 387.67333984375 942.1328125 391.0199890136719 934.0528564453125 391.0199890136719 M 922.0428466796875 355.9599914550781 C 922.0428466796875 355.9599914550781 922.0428466796875 357.336669921875 922.0428466796875 360.0899963378906 C 922.0428466796875 362.84332275390625 923.6961669921875 365.9766540527344 927.0028686523438 369.489990234375 C 930.3028564453125 373.0033264160156 934.15283203125 374.760009765625 938.5528564453125 374.760009765625 C 942.9595336914062 374.760009765625 946.7061767578125 373.0033264160156 949.7928466796875 369.489990234375 C 952.8861694335938 365.9766540527344 954.432861328125 361.4466552734375 954.432861328125 355.8999938964844 C 954.432861328125 350.35333251953125 952.8861694335938 345.739990234375 949.7928466796875 342.05999755859375 C 946.7061767578125 338.3733215332031 942.9194946289062 336.5299987792969 938.432861328125 336.5299987792969 C 933.9461669921875 336.5299987792969 930.0928344726562 338.3933410644531 926.8728637695312 342.1199951171875 C 923.65283203125 345.8466796875 922.0428466796875 350.4599914550781 922.0428466796875 355.9599914550781 ZM 1010.3042602539062 390 L 991.2542724609375 390 L 991.2542724609375 321.66998291015625 L 1010.3042602539062 321.66998291015625 L 1010.3042602539062 390 M 992.834228515625 312.9700012207031 C 992.834228515625 312.9700012207031 992.297607421875 312.433349609375 991.2242431640625 311.3599853515625 C 990.1442260742188 310.2799987792969 989.604248046875 308.17333984375 989.604248046875 305.0400085449219 C 989.604248046875 301.90667724609375 990.680908203125 299.260009765625 992.834228515625 297.1000061035156 C 994.9942626953125 294.94000244140625 997.6409301757812 293.8599853515625 1000.7742309570312 293.8599853515625 C 1003.9075927734375 293.8599853515625 1006.5542602539062 294.94000244140625 1008.7142333984375 297.1000061035156 C 1010.874267578125 299.260009765625 1011.9542236328125 301.90667724609375 1011.9542236328125 305.0400085449219 C 1011.9542236328125 308.17333984375 1010.874267578125 310.816650390625 1008.7142333984375 312.9700012207031 C 1006.5542602539062 315.1300048828125 1003.9075927734375 316.2099914550781 1000.7742309570312 316.2099914550781 C 997.6409301757812 316.2099914550781 994.9942626953125 315.1300048828125 992.834228515625 312.9700012207031 ZM 1086.37353515625 390 L 1068.4635009765625 390 L 1068.4635009765625 381.739990234375 C 1063.5501708984375 387.9266662597656 1057.4735107421875 391.0199890136719 1050.2335205078125 391.0199890136719 C 1043.0001220703125 391.0199890136719 1036.9267578125 388.92333984375 1032.013427734375 384.7300109863281 C 1027.10009765625 380.53668212890625 1024.6434326171875 374.95001220703125 1024.6434326171875 367.9700012207031 C 1024.6434326171875 360.98333740234375 1027.1834716796875 355.7533264160156 1032.263427734375 352.2799987792969 C 1037.343505859375 348.8066711425781 1044.286865234375 347.07000732421875 1053.093505859375 347.07000732421875 L 1067.323486328125 347.07000732421875 L 1067.323486328125 346.69000244140625 C 1067.323486328125 339.4100036621094 1063.4700927734375 335.7699890136719 1055.763427734375 335.7699890136719 C 1052.4635009765625 335.7699890136719 1048.9700927734375 336.4266662597656 1045.283447265625 337.739990234375 C 1041.603515625 339.0533447265625 1038.4935302734375 340.683349609375 1035.9534912109375 342.6300048828125 L 1027.4434814453125 330.30999755859375 C 1036.416748046875 323.7900085449219 1046.66015625 320.5299987792969 1058.1734619140625 320.5299987792969 C 1066.4735107421875 320.5299987792969 1073.246826171875 322.60333251953125 1078.4935302734375 326.75 C 1083.746826171875 330.9033203125 1086.37353515625 337.4666748046875 1086.37353515625 346.44000244140625 L 1086.37353515625 390 M 1067.1934814453125 363.9599914550781 L 1067.1934814453125 360.6600036621094 L 1055.25341796875 360.6600036621094 C 1047.6334228515625 360.6600036621094 1043.823486328125 363.0299987792969 1043.823486328125 367.7699890136719 C 1043.823486328125 370.2300109863281 1044.7335205078125 372.1166687011719 1046.553466796875 373.42999267578125 C 1048.37353515625 374.7366638183594 1050.976806640625 375.3900146484375 1054.363525390625 375.3900146484375 C 1057.7501220703125 375.3900146484375 1060.73681640625 374.35333251953125 1063.323486328125 372.2799987792969 C 1065.9034423828125 370.2066650390625 1067.1934814453125 367.4333190917969 1067.1934814453125 363.9599914550781 ZM 1122.8118896484375 351.8999938964844 L 1122.8118896484375 390 L 1103.761962890625 390 L 1103.761962890625 321.66998291015625 L 1122.8118896484375 321.66998291015625 L 1122.8118896484375 329.2900085449219 C 1128.5653076171875 323.45001220703125 1135.0419921875 320.5299987792969 1142.241943359375 320.5299987792969 C 1149.435302734375 320.5299987792969 1155.4686279296875 323.07000732421875 1160.3419189453125 328.1499938964844 C 1165.2086181640625 333.2300109863281 1167.6419677734375 340.0033264160156 1167.6419677734375 348.4700012207031 L 1167.6419677734375 390 L 1148.5919189453125 390 L 1148.5919189453125 351.3900146484375 C 1148.5919189453125 340.8900146484375 1144.7386474609375 335.6400146484375 1137.031982421875 335.6400146484375 C 1133.2252197265625 335.6400146484375 1129.9019775390625 337.01666259765625 1127.0618896484375 339.7699890136719 C 1124.2286376953125 342.5233459472656 1122.8118896484375 346.566650390625 1122.8118896484375 351.8999938964844 Z" transform="matrix(1, 0, 0, 1, -396, -268.8000183105469)" style="fill: rgb(232, 81, 0); white-space: pre; color: rgb(232, 81, 0);"/></svg>